<?xml version="1.0" standalone="no"?>
<!DOCTYPE svg PUBLIC "-//W3C//DTD SVG 20010904//EN"
 "http://www.w3.org/TR/2001/REC-SVG-20010904/DTD/svg10.dtd">
<svg version="1.0" xmlns="http://www.w3.org/2000/svg"
 width="114.000000pt" height="114.000000pt" viewBox="0 0 114.000000 114.000000"
 preserveAspectRatio="xMidYMid meet">

<g transform="translate(0.000000,114.000000) scale(0.100000,-0.100000)"
fill="#2350a3" stroke="none">
<path d="M40 1071 c-5 -11 -7 -27 -3 -36 9 -26 314 -410 324 -410 14 0 160
187 157 201 -2 7 -42 61 -89 121 -108 137 -120 143 -268 143 -99 0 -111 -2
-121 -19z"/>
<path d="M809 1067 c-19 -12 -204 -234 -412 -492 -208 -259 -382 -471 -388
-473 -18 -7 -9 -35 18 -58 40 -34 159 -34 236 0 51 22 70 43 283 307 566 702
546 676 542 706 l-3 28 -121 3 c-112 2 -123 1 -155 -21z"/>
<path d="M682 435 l-83 -104 94 -118 c101 -127 148 -173 177 -173 10 0 22 -4
25 -10 3 -5 42 -10 86 -10 91 0 129 17 129 56 0 16 -55 95 -162 232 -88 114
-166 212 -172 219 -8 9 -31 -13 -94 -92z"/>
</g>
</svg>
